<?xml version="1.0" encoding="UTF-8"?>
<!-- Do not edit this file with editors other than diagrams.net -->
<!DOCTYPE svg PUBLIC "-//W3C//DTD SVG 1.1//EN" "http://www.w3.org/Graphics/SVG/1.1/DTD/svg11.dtd">
<svg xmlns="http://www.w3.org/2000/svg" xmlns:xlink="http://www.w3.org/1999/xlink" version="1.1" width="961px" height="401px" viewBox="-0.5 -0.5 961 401" content="&lt;mxfile host=&quot;app.diagrams.net&quot; modified=&quot;2023-04-10T18:20:49.916Z&quot; agent=&quot;Mozilla/5.0 (Windows NT 10.0; Win64; x64; rv:109.0) Gecko/20100101 Firefox/111.0&quot; etag=&quot;Z4m4xRSzbpDagfPgTVMC&quot; version=&quot;21.1.5&quot; type=&quot;github&quot;&gt;&#xA;  &lt;diagram name=&quot;Page-1&quot; id=&quot;4gJyEpMDbQyeJ8WcmHt5&quot;&gt;&#xA;    &lt;mxGraphModel dx=&quot;1185&quot; dy=&quot;658&quot; grid=&quot;1&quot; gridSize=&quot;10&quot; guides=&quot;1&quot; tooltips=&quot;1&quot; connect=&quot;1&quot; arrows=&quot;1&quot; fold=&quot;1&quot; page=&quot;1&quot; pageScale=&quot;1&quot; pageWidth=&quot;1100&quot; pageHeight=&quot;850&quot; math=&quot;0&quot; shadow=&quot;0&quot;&gt;&#xA;      &lt;root&gt;&#xA;        &lt;mxCell id=&quot;0&quot; /&gt;&#xA;        &lt;mxCell id=&quot;1&quot; parent=&quot;0&quot; /&gt;&#xA;        &lt;mxCell id=&quot;3Qni2zRhTkxsP5T4w8-n-10&quot; style=&quot;rounded=0;orthogonalLoop=1;jettySize=auto;html=1;edgeStyle=orthogonalEdgeStyle;strokeColor=default;endArrow=oval;endFill=1;entryX=0.8;entryY=1;entryDx=0;entryDy=0;entryPerimeter=0;&quot; edge=&quot;1&quot; parent=&quot;1&quot; target=&quot;3Qni2zRhTkxsP5T4w8-n-7&quot;&gt;&#xA;          &lt;mxGeometry relative=&quot;1&quot; as=&quot;geometry&quot;&gt;&#xA;            &lt;mxPoint x=&quot;340&quot; y=&quot;470&quot; as=&quot;targetPoint&quot; /&gt;&#xA;            &lt;mxPoint x=&quot;541&quot; y=&quot;560&quot; as=&quot;sourcePoint&quot; /&gt;&#xA;            &lt;Array as=&quot;points&quot; /&gt;&#xA;          &lt;/mxGeometry&gt;&#xA;        &lt;/mxCell&gt;&#xA;        &lt;mxCell id=&quot;3Qni2zRhTkxsP5T4w8-n-11&quot; style=&quot;edgeStyle=none;rounded=0;orthogonalLoop=1;jettySize=auto;html=1;exitX=0.58;exitY=0.135;exitDx=0;exitDy=0;exitPerimeter=0;entryX=0;entryY=0.5;entryDx=0;entryDy=0;entryPerimeter=0;endArrow=oval;endFill=1;&quot; edge=&quot;1&quot; parent=&quot;1&quot; source=&quot;3Qni2zRhTkxsP5T4w8-n-3&quot; target=&quot;3Qni2zRhTkxsP5T4w8-n-9&quot;&gt;&#xA;          &lt;mxGeometry relative=&quot;1&quot; as=&quot;geometry&quot;&gt;&#xA;            &lt;mxPoint x=&quot;101&quot; y=&quot;310&quot; as=&quot;targetPoint&quot; /&gt;&#xA;            &lt;Array as=&quot;points&quot;&gt;&#xA;              &lt;mxPoint x=&quot;100&quot; y=&quot;297&quot; /&gt;&#xA;            &lt;/Array&gt;&#xA;          &lt;/mxGeometry&gt;&#xA;        &lt;/mxCell&gt;&#xA;        &lt;mxCell id=&quot;3Qni2zRhTkxsP5T4w8-n-3&quot; value=&quot;&quot; style=&quot;pointerEvents=1;verticalLabelPosition=bottom;shadow=0;dashed=0;align=center;html=1;verticalAlign=top;shape=mxgraph.electrical.signal_sources.dc_source_1;&quot; vertex=&quot;1&quot; parent=&quot;1&quot;&gt;&#xA;          &lt;mxGeometry x=&quot;60&quot; y=&quot;332.5&quot; width=&quot;70&quot; height=&quot;75&quot; as=&quot;geometry&quot; /&gt;&#xA;        &lt;/mxCell&gt;&#xA;        &lt;mxCell id=&quot;3Qni2zRhTkxsP5T4w8-n-5&quot; value=&quot;&quot; style=&quot;verticalLabelPosition=bottom;shadow=0;dashed=0;align=center;html=1;verticalAlign=top;shape=mxgraph.electrical.opto_electronics.lamp;direction=south;&quot; vertex=&quot;1&quot; parent=&quot;1&quot;&gt;&#xA;          &lt;mxGeometry x=&quot;920&quot; y=&quot;170&quot; width=&quot;100&quot; height=&quot;50&quot; as=&quot;geometry&quot; /&gt;&#xA;        &lt;/mxCell&gt;&#xA;        &lt;mxCell id=&quot;3Qni2zRhTkxsP5T4w8-n-20&quot; style=&quot;edgeStyle=none;rounded=0;orthogonalLoop=1;jettySize=auto;html=1;exitX=0.8;exitY=1;exitDx=0;exitDy=0;exitPerimeter=0;&quot; edge=&quot;1&quot; parent=&quot;1&quot; source=&quot;3Qni2zRhTkxsP5T4w8-n-6&quot;&gt;&#xA;          &lt;mxGeometry relative=&quot;1&quot; as=&quot;geometry&quot;&gt;&#xA;            &lt;mxPoint x=&quot;580&quot; y=&quot;380&quot; as=&quot;targetPoint&quot; /&gt;&#xA;          &lt;/mxGeometry&gt;&#xA;        &lt;/mxCell&gt;&#xA;        &lt;mxCell id=&quot;3Qni2zRhTkxsP5T4w8-n-6&quot; value=&quot;&quot; style=&quot;verticalLabelPosition=bottom;shadow=0;dashed=0;align=center;html=1;verticalAlign=top;shape=mxgraph.electrical.opto_electronics.lamp;direction=south;&quot; vertex=&quot;1&quot; parent=&quot;1&quot;&gt;&#xA;          &lt;mxGeometry x=&quot;920&quot; y=&quot;345&quot; width=&quot;100&quot; height=&quot;50&quot; as=&quot;geometry&quot; /&gt;&#xA;        &lt;/mxCell&gt;&#xA;        &lt;mxCell id=&quot;3Qni2zRhTkxsP5T4w8-n-7&quot; value=&quot;&quot; style=&quot;verticalLabelPosition=bottom;shadow=0;dashed=0;align=center;html=1;verticalAlign=top;shape=mxgraph.electrical.opto_electronics.lamp;direction=south;&quot; vertex=&quot;1&quot; parent=&quot;1&quot;&gt;&#xA;          &lt;mxGeometry x=&quot;920&quot; y=&quot;520&quot; width=&quot;100&quot; height=&quot;50&quot; as=&quot;geometry&quot; /&gt;&#xA;        &lt;/mxCell&gt;&#xA;        &lt;mxCell id=&quot;3Qni2zRhTkxsP5T4w8-n-9&quot; value=&quot;&quot; style=&quot;pointerEvents=1;verticalLabelPosition=bottom;shadow=0;dashed=0;align=center;html=1;verticalAlign=top;shape=mxgraph.electrical.electro-mechanical.relay_contacts;&quot; vertex=&quot;1&quot; parent=&quot;1&quot;&gt;&#xA;          &lt;mxGeometry x=&quot;210&quot; y=&quot;280&quot; width=&quot;80&quot; height=&quot;34&quot; as=&quot;geometry&quot; /&gt;&#xA;        &lt;/mxCell&gt;&#xA;        &lt;mxCell id=&quot;3Qni2zRhTkxsP5T4w8-n-12&quot; value=&quot;&quot; style=&quot;shape=image;html=1;verticalAlign=top;verticalLabelPosition=bottom;labelBackgroundColor=#ffffff;imageAspect=0;aspect=fixed;image=https://cdn0.iconfinder.com/data/icons/iphone-7-airpods-icons/24/apple-icons-artboard_wireless-charging-2-128.png&quot; vertex=&quot;1&quot; parent=&quot;1&quot;&gt;&#xA;          &lt;mxGeometry x=&quot;226&quot; y=&quot;232&quot; width=&quot;48&quot; height=&quot;48&quot; as=&quot;geometry&quot; /&gt;&#xA;        &lt;/mxCell&gt;&#xA;        &lt;mxCell id=&quot;3Qni2zRhTkxsP5T4w8-n-13&quot; value=&quot;&quot; style=&quot;pointerEvents=1;verticalLabelPosition=bottom;shadow=0;dashed=0;align=center;html=1;verticalAlign=top;shape=mxgraph.electrical.electro-mechanical.reedSwitch2;elSwitchState=off;&quot; vertex=&quot;1&quot; parent=&quot;1&quot;&gt;&#xA;          &lt;mxGeometry x=&quot;845&quot; y=&quot;345&quot; width=&quot;75&quot; height=&quot;20&quot; as=&quot;geometry&quot; /&gt;&#xA;        &lt;/mxCell&gt;&#xA;        &lt;mxCell id=&quot;3Qni2zRhTkxsP5T4w8-n-14&quot; value=&quot;&quot; style=&quot;pointerEvents=1;verticalLabelPosition=bottom;shadow=0;dashed=0;align=center;html=1;verticalAlign=top;shape=mxgraph.electrical.electro-mechanical.reedSwitch2;elSwitchState=off;&quot; vertex=&quot;1&quot; parent=&quot;1&quot;&gt;&#xA;          &lt;mxGeometry x=&quot;845&quot; y=&quot;170&quot; width=&quot;75&quot; height=&quot;20&quot; as=&quot;geometry&quot; /&gt;&#xA;        &lt;/mxCell&gt;&#xA;        &lt;mxCell id=&quot;3Qni2zRhTkxsP5T4w8-n-15&quot; value=&quot;&quot; style=&quot;pointerEvents=1;verticalLabelPosition=bottom;shadow=0;dashed=0;align=center;html=1;verticalAlign=top;shape=mxgraph.electrical.electro-mechanical.reedSwitch2;elSwitchState=off;&quot; vertex=&quot;1&quot; parent=&quot;1&quot;&gt;&#xA;          &lt;mxGeometry x=&quot;845&quot; y=&quot;520&quot; width=&quot;75&quot; height=&quot;20&quot; as=&quot;geometry&quot; /&gt;&#xA;        &lt;/mxCell&gt;&#xA;        &lt;mxCell id=&quot;3Qni2zRhTkxsP5T4w8-n-16&quot; value=&quot;&quot; style=&quot;rounded=0;orthogonalLoop=1;jettySize=auto;html=1;exitX=0.58;exitY=0.935;exitDx=0;exitDy=0;exitPerimeter=0;edgeStyle=orthogonalEdgeStyle;strokeColor=default;endArrow=oval;endFill=1;&quot; edge=&quot;1&quot; parent=&quot;1&quot; source=&quot;3Qni2zRhTkxsP5T4w8-n-3&quot;&gt;&#xA;          &lt;mxGeometry relative=&quot;1&quot; as=&quot;geometry&quot;&gt;&#xA;            &lt;mxPoint x=&quot;580&quot; y=&quot;380&quot; as=&quot;targetPoint&quot; /&gt;&#xA;            &lt;mxPoint x=&quot;101&quot; y=&quot;403&quot; as=&quot;sourcePoint&quot; /&gt;&#xA;            &lt;Array as=&quot;points&quot;&gt;&#xA;              &lt;mxPoint x=&quot;101&quot; y=&quot;560&quot; /&gt;&#xA;            &lt;/Array&gt;&#xA;          &lt;/mxGeometry&gt;&#xA;        &lt;/mxCell&gt;&#xA;        &lt;mxCell id=&quot;3Qni2zRhTkxsP5T4w8-n-17&quot; value=&quot;&quot; style=&quot;verticalLabelPosition=bottom;shadow=0;dashed=0;align=center;html=1;verticalAlign=top;strokeWidth=1;shape=ellipse;&quot; vertex=&quot;1&quot; parent=&quot;1&quot;&gt;&#xA;          &lt;mxGeometry x=&quot;535&quot; y=&quot;555&quot; width=&quot;10&quot; height=&quot;10&quot; as=&quot;geometry&quot; /&gt;&#xA;        &lt;/mxCell&gt;&#xA;      &lt;/root&gt;&#xA;    &lt;/mxGraphModel&gt;&#xA;  &lt;/diagram&gt;&#xA;&lt;/mxfile&gt;&#xA;" resource="https://app.diagrams.net/index.html#Hmahan518%2FUT%2Fmain%2FUT_Stage_Position_Sensor.drawio.svg"><defs/><g><path d="M 481 390 L 857 390" fill="none" stroke="rgb(0, 0, 0)" stroke-miterlimit="10" pointer-events="stroke"/><ellipse cx="860" cy="390" rx="3" ry="3" fill="rgb(0, 0, 0)" stroke="rgb(0, 0, 0)" pointer-events="all"/><path d="M 40.6 172.63 L 40 127 L 147 127" fill="none" stroke="rgb(0, 0, 0)" stroke-miterlimit="10" pointer-events="stroke"/><ellipse cx="150" cy="127" rx="3" ry="3" fill="rgb(0, 0, 0)" stroke="rgb(0, 0, 0)" pointer-events="all"/><rect x="0" y="162.5" width="70" height="75" fill="none" stroke="none" pointer-events="all"/><ellipse cx="40" cy="202.5" rx="30" ry="30" fill="rgb(255, 255, 255)" stroke="rgb(0, 0, 0)" pointer-events="all"/><path d="M 0 237.5 L 10 237.5 M 5 162.5 L 5 172.5 M 0 167.5 L 10 167.5" fill="none" stroke="rgb(0, 0, 0)" stroke-miterlimit="10" pointer-events="all"/><path d="M 885 55 L 885 0 C 885 -13.81 896.19 -25 910 -25 C 923.81 -25 935 -13.81 935 0 L 935 55 Z" fill="rgb(255, 255, 255)" stroke="rgb(0, 0, 0)" stroke-miterlimit="10" transform="rotate(90,910,25)" pointer-events="all"/><path d="M 895 75 L 895 25 C 895 16.72 901.72 10 910 10 C 918.28 10 925 16.72 925 25 L 925 75" fill="none" stroke="rgb(0, 0, 0)" stroke-miterlimit="10" transform="rotate(90,910,25)" pointer-events="all"/><path d="M 860 215 L 526.37 210.09" fill="none" stroke="rgb(0, 0, 0)" stroke-miterlimit="10" pointer-events="stroke"/><path d="M 521.12 210.02 L 528.17 206.62 L 526.37 210.09 L 528.07 213.62 Z" fill="rgb(0, 0, 0)" stroke="rgb(0, 0, 0)" stroke-miterlimit="10" pointer-events="all"/><path d="M 885 230 L 885 175 C 885 161.19 896.19 150 910 150 C 923.81 150 935 161.19 935 175 L 935 230 Z" fill="rgb(255, 255, 255)" stroke="rgb(0, 0, 0)" stroke-miterlimit="10" transform="rotate(90,910,200)" pointer-events="all"/><path d="M 895 250 L 895 200 C 895 191.72 901.72 185 910 185 C 918.28 185 925 191.72 925 200 L 925 250" fill="none" stroke="rgb(0, 0, 0)" stroke-miterlimit="10" transform="rotate(90,910,200)" pointer-events="all"/><path d="M 885 405 L 885 350 C 885 336.19 896.19 325 910 325 C 923.81 325 935 336.19 935 350 L 935 405 Z" fill="rgb(255, 255, 255)" stroke="rgb(0, 0, 0)" stroke-miterlimit="10" transform="rotate(90,910,375)" pointer-events="all"/><path d="M 895 425 L 895 375 C 895 366.72 901.72 360 910 360 C 918.28 360 925 366.72 925 375 L 925 425" fill="none" stroke="rgb(0, 0, 0)" stroke-miterlimit="10" transform="rotate(90,910,375)" pointer-events="all"/><rect x="150" y="110" width="80" height="34" fill="none" stroke="none" pointer-events="all"/><path d="M 176.67 110 L 176.67 144 M 203.33 110 L 203.33 144 M 203.33 127 L 230 127 M 176.67 127 L 150 127" fill="none" stroke="rgb(0, 0, 0)" stroke-miterlimit="10" pointer-events="all"/><image x="165.5" y="61.5" width="48" height="48" xlink:href="https://cdn0.iconfinder.com/data/icons/iphone-7-airpods-icons/24/apple-icons-artboard_wireless-charging-2-128.png" preserveAspectRatio="none"/><path d="M 836.75 175 C 842.13 175 846.5 179.48 846.5 185 C 846.5 187.65 845.47 190.2 843.64 192.07 C 841.82 193.95 839.34 195 836.75 195 L 808.25 195 C 802.87 195 798.5 190.52 798.5 185 C 798.5 179.48 802.87 175 808.25 175 Z" fill="rgb(255, 255, 255)" stroke="rgb(0, 0, 0)" stroke-miterlimit="10" pointer-events="all"/><path d="M 860 185 L 833.75 185 M 785 185 L 811.25 185 L 833.75 180" fill="none" stroke="rgb(0, 0, 0)" stroke-miterlimit="10" pointer-events="all"/><path d="M 836.75 0 C 842.13 0 846.5 4.48 846.5 10 C 846.5 12.65 845.47 15.2 843.64 17.07 C 841.82 18.95 839.34 20 836.75 20 L 808.25 20 C 802.87 20 798.5 15.52 798.5 10 C 798.5 4.48 802.87 0 808.25 0 Z" fill="rgb(255, 255, 255)" stroke="rgb(0, 0, 0)" stroke-miterlimit="10" pointer-events="all"/><path d="M 860 10 L 833.75 10 M 785 10 L 811.25 10 L 833.75 5" fill="none" stroke="rgb(0, 0, 0)" stroke-miterlimit="10" pointer-events="all"/><path d="M 836.75 350 C 842.13 350 846.5 354.48 846.5 360 C 846.5 362.65 845.47 365.2 843.64 367.07 C 841.82 368.95 839.34 370 836.75 370 L 808.25 370 C 802.87 370 798.5 365.52 798.5 360 C 798.5 354.48 802.87 350 808.25 350 Z" fill="rgb(255, 255, 255)" stroke="rgb(0, 0, 0)" stroke-miterlimit="10" pointer-events="all"/><path d="M 860 360 L 833.75 360 M 785 360 L 811.25 360 L 833.75 355" fill="none" stroke="rgb(0, 0, 0)" stroke-miterlimit="10" pointer-events="all"/><path d="M 40.6 232.63 L 40.6 390 L 520.03 390 L 520 213" fill="none" stroke="rgb(0, 0, 0)" stroke-miterlimit="10" pointer-events="stroke"/><ellipse cx="520" cy="210" rx="3" ry="3" fill="rgb(0, 0, 0)" stroke="rgb(0, 0, 0)" pointer-events="all"/><ellipse cx="480" cy="390" rx="5" ry="5" fill="rgb(255, 255, 255)" stroke="rgb(0, 0, 0)" pointer-events="all"/></g></svg>